{"title":"Francofonia 2015 Limited BDRip 720p Legendado PT-BR","uid":15244426,"size":4695118648,"categoryP":"video","categoryS":"hd___movies","magnet":"?xt=urn:btih:0c3309a5fc5985eb73f43ae08658ada62b7fe224&amp;dn=Francofonia+2015+Limited+BDRip+720p+Legendado+PT-BR&amp;tr=udp%3A%2F%2Ftracker.leechers-paradise.org%3A6969&amp;tr=udp%3A%2F%2Fzer0day.ch%3A1337&amp;tr=udp%3A%2F%2Fopen.demonii.com%3A1337&amp;tr=udp%3A%2F%2Ftracker.coppersurfer.tk%3A6969&amp;tr=udp%3A%2F%2Fexodus.desync.com%3A6969","seeders":14,"leechers":1,"uploader":null,"files":1,"time":1467990189,"description":"Language: Russian | French| German | English\r\nLegendas/subtitles: Português | English\r\n\r\n=============================================\r\nA tour of the Louvre serves as a meditation on art in this experimental film, which explores how the museum avoided being plundered during the Nazi occupation of World War II, and depicts the ghost of Napoleon and the spirit of France wandering among the exhibits.\r\nUsing a spectacular staging of the artworks, reconstitution, archives, testimonies, the film explores the question of relations between art and power, what art tells us about ourselves even in the midst of one of the bloodiest conflicts the world had ever seen.\r\n\r\n==============================================\r\nUma excursão pelo Louvre serve como meditação sobre a arte neste filme experimental, que explora como o museu evitou ser saqueado durante a ocupação nazista da 2ª Guerra Mundial, mostrando o fantasma de Napoleão e o espírito da França vagando entre as exposições.\r\nTendo como plataforma as obras de arte, reconstituições, arquivos e testemunhos, o filme explora a relação entre arte e poder e o que a arte nos conta sobre nós mesmos em meio a um dos conflitos mais sanguinários que o mundo já viu.\r\n\r\n===============================================\r\n\r\nVideo\r\nID                             : 1\r\nFormat                         : AVC\r\nFormat/Info                    : Advanced Video Codec\r\nFormat profile                 :   \r\nFormat settings, CABAC         : Yes\r\nFormat settings, ReFrames      : 5 frames\r\nCodec ID                       : V_MPEG4/ISO/AVC\r\nDuration                       : 1h 27mn\r\nBit rate                       : 5 616 Kbps\r\nWidth                          : 1 200 pixels\r\nHeight                         : 720 pixels\r\nDisplay aspect ratio           : 1.667\r\nFrame rate mode                : Constant\r\nFrame rate                     : 23.976 fps\r\nColor space                    : YUV\r\nChroma subsampling             : 4:2:0\r\nBit depth                      : 8 bits\r\nScan type                      : Progressive\r\nBits/(Pixel*Frame)             : 0.271\r\nStream size                    : 3.36 GiB (77%)\r\n\r\n\r\nAudio\r\nID                             : 2\r\nFormat                         : DTS\r\nFormat/Info                    : Digital Theater Systems\r\nMode                           : 16\r\nFormat settings, Endianness    : Big\r\nCodec ID                       : A_DTS\r\nDuration                       : 1h 27mn\r\nBit rate mode                  : Constant\r\nBit rate                       : 1 509 Kbps\r\nChannel(s)                     : 6 channels\r\nChannel positions              : Front: L C R, Side: L R, LFE\r\nSampling rate                  : 48.0 KHz\r\nBit depth                      : 24 bits\r\nCompression mode               : Lossy\r\nStream size                    : 948 MiB (21%)\r\nLanguage                       : French\r\nDefault                        : Yes\r\nForced                         : No\r\n\r\nText #1\r\nID                             : 3\r\nFormat                         : UTF-8\r\nCodec ID                       : S_TEXT/UTF8\r\nCodec ID/Info                  : UTF-8 Plain Text\r\nLanguage                       : Portuguese\r\nDefault                        : Yes\r\nForced                         : No\r\n\r\nText #2\r\nID                             : 4\r\nFormat                         : UTF-8\r\nCodec ID                       : S_TEXT/UTF8\r\nCodec ID/Info                  : UTF-8 Plain Text\r\nLanguage                       : English\r\nDefault                        : No\r\nForced                         : No\r\n\r\nMenu\r\n00:00:00.000                   : en:00:00:00.000\r\n00:09:19.184                   : en:00:09:19.184\r\n00:18:06.961                   : en:00:18:06.961\r\n00:26:43.977                   : en:00:26:43.977\r\n00:34:55.844                   : en:00:34:55.844\r\n00:44:58.571                   : en:00:44:58.571\r\n00:53:03.055                   : en:00:53:03.055\r\n01:00:47.811                   : en:01:00:47.811\r\n01:08:39.198                   : en:01:08:39.198\r\n01:16:17.656                   : en:01:16:17.656\r\n01:26:53.083                   : en:01:26:53.083","torrent":{"xt":"urn:btih:0c3309a5fc5985eb73f43ae08658ada62b7fe224","amp;dn":"Francofonia+2015+Limited+BDRip+720p+Legendado+PT-BR","amp;tr":["udp%3A%2F%2Ftracker.leechers-paradise.org%3A6969","udp%3A%2F%2Fzer0day.ch%3A1337","udp%3A%2F%2Fopen.demonii.com%3A1337","udp%3A%2F%2Ftracker.coppersurfer.tk%3A6969","udp%3A%2F%2Fexodus.desync.com%3A6969"],"infoHash":"0c3309a5fc5985eb73f43ae08658ada62b7fe224","infoHashBuffer":{"type":"Buffer","data":[12,51,9,165,252,89,133,235,115,244,58,224,134,88,173,166,43,127,226,36]},"announce":[],"urlList":[]}}